<svg width="16" height="20" viewBox="0 0 16 20" fill="none" xmlns="http://www.w3.org/2000/svg">
<path d="M12.2193 5C12.2193 6.06087 11.7976 7.07828 11.0471 7.82843C10.2966 8.57857 9.27863 9 8.21721 9C7.15579 9 6.13784 8.57857 5.38731 7.82843C4.63677 7.07828 4.21512 6.06087 4.21512 5C4.21512 3.93913 4.63677 2.92172 5.38731 2.17157C6.13784 1.42143 7.15579 1 8.21721 1C9.27863 1 10.2966 1.42143 11.0471 2.17157C11.7976 2.92172 12.2193 3.93913 12.2193 5V5ZM8.21721 12C6.35973 12 4.57832 12.7375 3.26488 14.0503C1.95144 15.363 1.21356 17.1435 1.21356 19H15.2209C15.2209 17.1435 14.483 15.363 13.1695 14.0503C11.8561 12.7375 10.0747 12 8.21721 12V12Z" stroke="#5D5D5D" stroke-linecap="round" stroke-linejoin="round"/>
</svg>
