<svg width="20" height="20" viewBox="0 0 20 20" fill="none" xmlns="http://www.w3.org/2000/svg">
<path d="M6.26927 5V1M14.2734 5V1M5.26875 9H15.274M5.26875 13H15.274M3.2677 19H17.275C17.8057 19 18.3147 18.7893 18.6899 18.4142C19.0652 18.0391 19.276 17.5304 19.276 17V5C19.276 4.46957 19.0652 3.96086 18.6899 3.58579C18.3147 3.21071 17.8057 3 17.275 3H3.2677C2.73699 3 2.22802 3.21071 1.85275 3.58579C1.47749 3.96086 1.26666 4.46957 1.26666 5V17C1.26666 17.5304 1.47749 18.0391 1.85275 18.4142C2.22802 18.7893 2.73699 19 3.2677 19Z" stroke="#5D5D5D" stroke-linecap="round" stroke-linejoin="round"/>
</svg>
