<svg width="38" height="37" viewBox="0 0 38 37" fill="none" xmlns="http://www.w3.org/2000/svg">
<path d="M9.71097 14.9696C9.85436 15.1141 10.025 15.2288 10.2129 15.307C10.4009 15.3853 10.6025 15.4256 10.8061 15.4256C11.0097 15.4256 11.2114 15.3853 11.3993 15.307C11.5873 15.2288 11.7579 15.1141 11.9013 14.9696C12.0459 14.8263 12.1606 14.6558 12.2389 14.4679C12.3172 14.28 12.3575 14.0785 12.3575 13.875C12.3575 13.6715 12.3172 13.47 12.2389 13.2821C12.1606 13.0942 12.0459 12.9237 11.9013 12.7804L8.81634 9.69708C8.66964 9.55673 8.49666 9.44671 8.30732 9.37333C7.93179 9.21914 7.51058 9.21914 7.13505 9.37333C6.94571 9.44671 6.77273 9.55673 6.62603 9.69708L3.54109 12.7804C3.25064 13.0707 3.08746 13.4645 3.08746 13.875C3.08746 14.2855 3.25064 14.6793 3.54109 14.9696C3.83154 15.2599 4.22548 15.423 4.63624 15.423C5.04701 15.423 5.44095 15.2599 5.7314 14.9696L6.17871 14.5071V22.4929L5.7314 22.0304C5.44095 21.7401 5.04701 21.577 4.63624 21.577C4.22548 21.577 3.83154 21.7401 3.54109 22.0304C3.25064 22.3207 3.08746 22.7145 3.08746 23.125C3.08746 23.5355 3.25064 23.9293 3.54109 24.2196L6.62603 27.3029C6.77273 27.4433 6.94571 27.5533 7.13505 27.6267C7.31968 27.7082 7.51932 27.7504 7.72118 27.7504C7.92305 27.7504 8.12269 27.7082 8.30732 27.6267C8.49666 27.5533 8.66964 27.4433 8.81634 27.3029L11.9013 24.2196C12.0451 24.0758 12.1592 23.9052 12.237 23.7174C12.3148 23.5296 12.3549 23.3283 12.3549 23.125C12.3549 22.9217 12.3148 22.7204 12.237 22.5326C12.1592 22.3448 12.0451 22.1742 11.9013 22.0304C11.7575 21.8867 11.5867 21.7726 11.3988 21.6949C11.2109 21.6171 11.0095 21.577 10.8061 21.577C10.6027 21.577 10.4013 21.6171 10.2134 21.6949C10.0255 21.7726 9.85479 21.8867 9.71097 22.0304L9.26365 22.4929V14.5071L9.71097 14.9696ZM16.976 12.3333H32.4007C32.8098 12.3333 33.2021 12.1709 33.4914 11.8818C33.7807 11.5927 33.9432 11.2005 33.9432 10.7917C33.9432 10.3828 33.7807 9.99066 33.4914 9.70154C33.2021 9.41243 32.8098 9.25 32.4007 9.25H16.976C16.5669 9.25 16.1746 9.41243 15.8853 9.70154C15.596 9.99066 15.4335 10.3828 15.4335 10.7917C15.4335 11.2005 15.596 11.5927 15.8853 11.8818C16.1746 12.1709 16.5669 12.3333 16.976 12.3333ZM32.4007 16.9583H16.976C16.5669 16.9583 16.1746 17.1208 15.8853 17.4099C15.596 17.699 15.4335 18.0911 15.4335 18.5C15.4335 18.9089 15.596 19.301 15.8853 19.5901C16.1746 19.8792 16.5669 20.0417 16.976 20.0417H32.4007C32.8098 20.0417 33.2021 19.8792 33.4914 19.5901C33.7807 19.301 33.9432 18.9089 33.9432 18.5C33.9432 18.0911 33.7807 17.699 33.4914 17.4099C33.2021 17.1208 32.8098 16.9583 32.4007 16.9583ZM32.4007 24.6667H16.976C16.5669 24.6667 16.1746 24.8291 15.8853 25.1182C15.596 25.4073 15.4335 25.7995 15.4335 26.2083C15.4335 26.6172 15.596 27.0093 15.8853 27.2985C16.1746 27.5876 16.5669 27.75 16.976 27.75H32.4007C32.8098 27.75 33.2021 27.5876 33.4914 27.2985C33.7807 27.0093 33.9432 26.6172 33.9432 26.2083C33.9432 25.7995 33.7807 25.4073 33.4914 25.1182C33.2021 24.8291 32.8098 24.6667 32.4007 24.6667Z" fill="#5956E8"/>
</svg>
